<svg width="19" height="19" viewBox="0 0 19 19" fill="none" xmlns="http://www.w3.org/2000/svg">
<path d="M6.25488 10.486H1.16016V18.7955H6.25488V10.486Z" fill="#008248"/>
<path d="M16.9893 10.486H11.8945V18.7955H16.9893V10.486Z" fill="#008248"/>
<path d="M13.6211 5.30235C14.8 4.96601 15.6421 3.9372 15.6421 2.71053C15.6421 1.20688 14.3579 0 12.7579 0C10.8211 0 9.85265 1.0486 9.0737 2.25548C8.29475 1.0486 7.32633 0 5.38948 0C3.78948 0 2.50527 1.20688 2.50527 2.71053C2.50527 3.91741 3.34737 4.94622 4.52632 5.30235H0V9.14062H6.25264V5.42106H7.68422V18.7957H10.4421V5.42106H11.8737V9.14062H18.1263V5.30235H13.6211ZM12.7579 1.62236C13.3895 1.62236 13.9158 2.11698 13.9158 2.71053C13.9158 3.30408 13.3895 3.7987 12.7579 3.7987H10.1263C10.9895 2.33462 11.4737 1.62236 12.7579 1.62236ZM5.38948 1.62236C6.67369 1.62236 7.15791 2.33462 8.02106 3.81849H5.38948C4.7579 3.81849 4.23159 3.32386 4.23159 2.73032C4.23159 2.13677 4.7579 1.62236 5.38948 1.62236Z" fill="#008248"/>
</svg>
