<svg width="18" height="18" viewBox="0 0 18 18" fill="none" xmlns="http://www.w3.org/2000/svg">
<path d="M16.5312 5.46875C17.125 4.875 17.125 3.90625 16.5312 3.34375L14.6562 1.46875C14.0938 0.875 13.125 0.875 12.5312 1.46875L11.0938 2.90625C10.9688 3.03125 10.9688 3.28125 11.0938 3.4375L14.5625 6.90625C14.7188 7.03125 14.9688 7.03125 15.0938 6.90625L16.5312 5.46875ZM9.875 4.125L1.65625 12.3438L1 16.125C0.90625 16.6562 1.34375 17.0938 1.875 17L5.65625 16.3438L13.875 8.125C14.0312 8 14.0312 7.75 13.875 7.59375L10.4062 4.125C10.25 4 10 4 9.875 4.125ZM4.875 11.625C4.6875 11.4688 4.6875 11.1875 4.875 11.0312L9.6875 6.21875C9.84375 6.03125 10.125 6.03125 10.2812 6.21875C10.4688 6.375 10.4688 6.65625 10.2812 6.8125L5.46875 11.625C5.3125 11.8125 5.03125 11.8125 4.875 11.625ZM3.75 14.25H5.25V15.4062L3.21875 15.75L2.25 14.7812L2.59375 12.75H3.75V14.25Z" fill="#008248"/>
</svg>
