<svg width="21" height="15" viewBox="0 0 21 15" fill="none" xmlns="http://www.w3.org/2000/svg">
<path d="M10.5 8.20427L1.2825 0.21145C1.58421 0.0741109 1.91477 0.00186705 2.25 0H18.75C19.0852 0.00186705 19.4158 0.0741109 19.7175 0.21145L10.5 8.20427ZM20.775 1.20527L11.025 9.66327C10.8863 9.78415 10.7041 9.85131 10.515 9.85131C10.3259 9.85131 10.1437 9.78415 10.005 9.66327L0.255 1.20527C0.098463 1.48652 0.0113085 1.79728 0 2.1145V11.9822C0 12.543 0.237053 13.0808 0.65901 13.4774C1.08097 13.8739 1.65326 14.0967 2.25 14.0967H18.75C19.3467 14.0967 19.919 13.8739 20.341 13.4774C20.7629 13.0808 21 12.543 21 11.9822V2.1145C20.998 1.79946 20.9211 1.48881 20.775 1.20527Z" fill="#008248"/>
</svg>
