<svg width="19" height="20" viewBox="0 0 19 20" fill="none" xmlns="http://www.w3.org/2000/svg">
<path d="M3.7014 5.91089e-07C3.07003 -0.000430375 2.46434 0.234819 2.01751 0.654014C1.57068 1.07321 1.31931 1.64203 1.31867 2.23537C1.31845 2.52949 1.37993 2.82077 1.49959 3.09254C1.61926 3.36431 1.79476 3.61125 2.01606 3.81922C2.23736 4.02719 2.50012 4.19213 2.78931 4.30458C3.07849 4.41704 3.38843 4.47481 3.7014 4.4746C4.33275 4.474 4.93801 4.23776 5.38406 3.81785C5.83011 3.39793 6.08044 2.82871 6.07999 2.23537C6.07935 1.6427 5.82855 1.07447 5.38261 0.655388C4.93668 0.236304 4.33204 0.000599324 3.7014 5.91089e-07ZM14.5263 5.91089e-07C13.8949 -0.000421925 13.2892 0.234831 12.8424 0.654026C12.3956 1.07322 12.1442 1.64203 12.1436 2.23537C12.1433 2.52949 12.2048 2.82076 12.3245 3.09253C12.4441 3.3643 12.6196 3.61124 12.8409 3.81921C13.0622 4.02718 13.325 4.19211 13.6142 4.30457C13.9034 4.41703 14.2133 4.47481 14.5263 4.4746C14.8392 4.47481 15.1492 4.41704 15.4383 4.30458C15.7275 4.19213 15.9903 4.02719 16.2116 3.81922C16.4329 3.61125 16.6084 3.36431 16.7281 3.09254C16.8477 2.82077 16.9092 2.52949 16.909 2.23537C16.9083 1.64203 16.657 1.07321 16.2101 0.654014C15.7633 0.234819 15.1576 -0.000430375 14.5263 5.91089e-07ZM1.61038 5.25061C0.722798 5.25061 0 5.92599 0 6.76016V13.9527H1.91028V19.6782H5.49255V13.9527H7.39873V6.76016H7.40283C7.40283 5.92599 6.68413 5.25061 5.79652 5.25061H1.61038ZM14.5263 5.25061C14.2536 5.25061 13.9814 5.3963 13.8731 5.68687L10.0525 15.9564H12.6694V19.6782H16.3832V15.9564H19L15.1795 5.68687C15.0701 5.3963 14.7989 5.25061 14.5263 5.25061Z" fill="#008248"/>
</svg>
