<svg width="20" height="19" viewBox="0 0 20 19" fill="none" xmlns="http://www.w3.org/2000/svg">
<path d="M19.1328 13.9325C18.4748 13.2904 17.7811 12.6814 17.0547 12.1081C16.1471 11.3794 15.3396 11.497 14.6982 12.0226C14.0544 12.5468 13.7318 12.808 13.0848 13.3282C12.9362 13.4445 12.7479 13.5064 12.5546 13.5024C12.3612 13.4984 12.1759 13.4289 12.0329 13.3066C10.9892 12.4603 6.74116 8.46807 5.84058 7.4873C5.7105 7.35283 5.63654 7.1787 5.63232 6.99701C5.6281 6.81532 5.69392 6.63832 5.81763 6.49865C6.37124 5.89065 6.64912 5.58741 7.20688 4.98245C7.76612 4.37959 7.89131 3.62077 7.11595 2.76785C6.50599 2.08517 5.85802 1.43329 5.17476 0.814954C4.05125 -0.221251 2.96585 -0.270886 1.94681 0.675048C1.31203 1.30014 0.791889 2.01979 0.40753 2.80474C-1.43247 6.48745 3.42451 11.3203 5.68938 13.4488C7.95433 15.5774 13.0969 20.1418 17.0156 18.4126C17.8508 18.0514 18.6166 17.5626 19.2817 16.966C20.2882 16.0084 20.2354 14.9884 19.1328 13.9325Z" fill="#008248"/>
</svg>
